<svg viewBox="0 0 36 36" fill="none" xmlns="http://www.w3.org/2000/svg">
<path opacity="0.1" fill-rule="evenodd" clip-rule="evenodd" d="M18 6.75C15.0163 6.75 12.1548 7.93526 10.045 10.045C7.93526 12.1548 6.75 15.0163 6.75 18C6.75 20.9837 7.93526 23.8452 10.045 25.955C12.1548 28.0647 15.0163 29.25 18 29.25C20.9837 29.25 23.8452 28.0647 25.955 25.955C28.0647 23.8452 29.25 20.9837 29.25 18C29.25 15.0163 28.0647 12.1548 25.955 10.045C23.8452 7.93526 20.9837 6.75 18 6.75ZM2.25 18C2.25 9.3015 9.3015 2.25 18 2.25C26.6985 2.25 33.75 9.3015 33.75 18C33.75 26.6985 26.6985 33.75 18 33.75C9.3015 33.75 2.25 26.6985 2.25 18Z" fill="#FFF"/>
<path fill-rule="evenodd" clip-rule="evenodd" d="M17.9999 6.75002C15.0994 6.7435 12.3098 7.86376 10.2194 9.87452C9.7863 10.275 9.21329 10.4893 8.62372 10.4714C8.03415 10.4536 7.47518 10.2049 7.06714 9.77897C6.6591 9.35303 6.43464 8.78391 6.44207 8.19411C6.44951 7.60432 6.68825 7.04103 7.10689 6.62552C10.0348 3.81221 13.9395 2.24377 17.9999 2.25002C18.5966 2.25002 19.1689 2.48707 19.5909 2.90903C20.0128 3.33099 20.2499 3.90328 20.2499 4.50002C20.2499 5.09676 20.0128 5.66905 19.5909 6.09101C19.1689 6.51297 18.5966 6.75002 17.9999 6.75002Z" fill="#FFF"/>
</svg>
